
<svg width="18" height="18" viewBox="0 0 18 18" fill="none" xmlns="http://www.w3.org/2000/svg">
<path d="M15.7251 12.125C16.3251 12.062 16.8756 11.7632 17.2553 11.2944C17.6351 10.8255 17.813 10.225 17.7501 9.625V5.875C17.7501 3.59375 16.7751 0.875 12.1251 0.875H0.250076V9.625H4.28758L6.50008 12.9813L7.12508 16.9437V17.0187C7.17206 17.2224 7.2853 17.4047 7.44705 17.537C7.60881 17.6694 7.80991 17.7443 8.01883 17.75H9.00008C9.15785 17.7688 9.3173 17.7688 9.47508 17.75C10.0751 17.687 10.6256 17.3882 11.0053 16.9194C11.3851 16.4505 11.563 15.85 11.5001 15.25V12.125H15.2501C15.4079 12.1438 15.5673 12.1438 15.7251 12.125ZM4.00008 8.375H1.50008V2.125H4.00008V8.375ZM16.5001 9.625C16.5001 10.525 16.1501 10.875 15.2501 10.875H10.2501V15.25C10.2501 16.15 9.90008 16.5 9.00008 16.5H8.29383L8.20633 15.875L7.75008 12.5187L5.25008 8.8125V2.125H12.1251C15.1126 2.125 16.5001 3.31875 16.5001 5.875V9.625Z" fill="#525252"/>
</svg>
