<svg width="18" height="18" viewBox="0 0 18 18" fill="none" xmlns="http://www.w3.org/2000/svg">
<path d="M15.2501 5.87498H11.5001V2.74998C11.563 2.14993 11.3851 1.54944 11.0053 1.08061C10.6256 0.611769 10.0751 0.312986 9.47508 0.249979C9.3173 0.231228 9.15785 0.231228 9.00008 0.249979H8.01883C7.80991 0.255703 7.60881 0.330611 7.44705 0.462953C7.2853 0.595295 7.17206 0.777585 7.12508 0.981229V1.05623L6.50008 5.01873L4.28758 8.37498H0.250076V17.125H12.1251C16.7751 17.125 17.7501 14.4062 17.7501 12.125V8.37498C17.813 7.77493 17.6351 7.17444 17.2553 6.70561C16.8756 6.23677 16.3251 5.93799 15.7251 5.87498C15.5673 5.85623 15.4079 5.85623 15.2501 5.87498ZM4.00008 15.875H1.50008V9.62498H4.00008V15.875ZM16.5001 12.125C16.5001 14.6812 15.1126 15.875 12.1251 15.875H5.25008V9.18748L7.75008 5.48123L8.20633 2.12498L8.29383 1.49998H9.00008C9.90008 1.49998 10.2501 1.84998 10.2501 2.74998V7.12498H15.2501C16.1501 7.12498 16.5001 7.47498 16.5001 8.37498V12.125Z" fill="#E3E3E3"/>
</svg>